<svg width="1200" height="800" viewBox="0 0 1200 800" fill="none" xmlns="http://www.w3.org/2000/svg">
  <defs>
    <linearGradient id="bg" x1="0" y1="0" x2="1200" y2="800" gradientUnits="userSpaceOnUse">
      <stop stop-color="#2A1610"/>
      <stop offset="1" stop-color="#110E0D"/>
    </linearGradient>
    <linearGradient id="windowGlow" x1="0" y1="0" x2="0" y2="1">
      <stop stop-color="#FDC889" stop-opacity="0.9"/>
      <stop offset="1" stop-color="#A45A24" stop-opacity="0.55"/>
    </linearGradient>
    <linearGradient id="counter" x1="0" y1="0" x2="1" y2="1">
      <stop stop-color="#5A3422"/>
      <stop offset="1" stop-color="#2F1E15"/>
    </linearGradient>
    <filter id="blurA" x="-30%" y="-30%" width="160%" height="160%">
      <feGaussianBlur stdDeviation="42"/>
    </filter>
  </defs>

  <rect width="1200" height="800" fill="url(#bg)"/>

  <ellipse cx="220" cy="120" rx="180" ry="110" fill="#F59E0B" fill-opacity="0.24" filter="url(#blurA)"/>
  <ellipse cx="1020" cy="170" rx="210" ry="130" fill="#FB923C" fill-opacity="0.2" filter="url(#blurA)"/>

  <rect x="180" y="120" width="840" height="360" rx="22" fill="#1B1614" stroke="#3B2B22" stroke-opacity="0.7"/>
  <rect x="210" y="150" width="380" height="300" rx="16" fill="url(#windowGlow)"/>
  <rect x="610" y="150" width="380" height="300" rx="16" fill="url(#windowGlow)"/>

  <rect x="0" y="470" width="1200" height="330" fill="#15110F"/>
  <rect x="90" y="505" width="1020" height="170" rx="18" fill="url(#counter)" stroke="#7C4A2D" stroke-opacity="0.45"/>

  <rect x="190" y="538" width="90" height="78" rx="10" fill="#C4813C" fill-opacity="0.42"/>
  <rect x="300" y="538" width="90" height="78" rx="10" fill="#A35D31" fill-opacity="0.52"/>
  <rect x="410" y="538" width="90" height="78" rx="10" fill="#8D4E2A" fill-opacity="0.58"/>

  <rect x="760" y="520" width="250" height="132" rx="14" fill="#2C201A" stroke="#8D5A3A" stroke-opacity="0.5"/>
  <circle cx="810" cy="585" r="23" fill="#F7D9B0"/>
  <path d="M802 585C802 579.477 806.477 575 812 575H823C828.523 575 833 579.477 833 585V596H812C806.477 596 802 591.523 802 586V585Z" fill="#6B3F29"/>
  <rect x="832" y="579" width="11" height="15" rx="5.5" stroke="#6B3F29" stroke-width="3"/>

  <g opacity="0.9">
    <rect x="550" y="530" width="10" height="110" rx="5" fill="#D9A066"/>
    <rect x="575" y="550" width="10" height="90" rx="5" fill="#D9A066"/>
    <rect x="600" y="540" width="10" height="100" rx="5" fill="#D9A066"/>
    <rect x="625" y="545" width="10" height="95" rx="5" fill="#D9A066"/>
  </g>

  <text x="140" y="725" fill="#E7C49A" font-family="Georgia, serif" font-size="52" font-weight="700">BREW HAVEN</text>
  <text x="145" y="760" fill="#C28B5A" font-family="Arial, sans-serif" font-size="24" letter-spacing="3">SPECIALTY COFFEE HOUSE</text>
</svg>
